<svg width="28" height="28" viewBox="0 0 28 28" fill="none" xmlns="http://www.w3.org/2000/svg">
<path d="M14 0.5C11.33 0.5 8.71987 1.29176 6.49981 2.77516C4.27974 4.25856 2.54942 6.36697 1.52763 8.83377C0.505849 11.3006 0.238504 14.015 0.759405 16.6337C1.28031 19.2525 2.56606 21.6579 4.45406 23.5459C6.34207 25.434 8.74754 26.7197 11.3663 27.2406C13.985 27.7615 16.6994 27.4942 19.1662 26.4724C21.633 25.4506 23.7414 23.7203 25.2248 21.5002C26.7082 19.2801 27.5 16.67 27.5 14C27.496 10.4208 26.0724 6.98932 23.5416 4.45844C21.0107 1.92756 17.5792 0.50397 14 0.5ZM15.5 24.3913V17.5H18C18.3978 17.5 18.7794 17.342 19.0607 17.0607C19.342 16.7794 19.5 16.3978 19.5 16C19.5 15.6022 19.342 15.2206 19.0607 14.9393C18.7794 14.658 18.3978 14.5 18 14.5H15.5V12C15.5 11.6022 15.658 11.2206 15.9393 10.9393C16.2207 10.658 16.6022 10.5 17 10.5H19C19.3978 10.5 19.7794 10.342 20.0607 10.0607C20.342 9.77936 20.5 9.39782 20.5 9C20.5 8.60218 20.342 8.22064 20.0607 7.93934C19.7794 7.65804 19.3978 7.5 19 7.5H17C15.8065 7.5 14.6619 7.97411 13.818 8.81802C12.9741 9.66193 12.5 10.8065 12.5 12V14.5H10C9.60218 14.5 9.22065 14.658 8.93935 14.9393C8.65804 15.2206 8.50001 15.6022 8.50001 16C8.50001 16.3978 8.65804 16.7794 8.93935 17.0607C9.22065 17.342 9.60218 17.5 10 17.5H12.5V24.3913C9.87262 24.012 7.4864 22.6517 5.82156 20.584C4.15673 18.5163 3.33686 15.8948 3.52696 13.247C3.71707 10.5992 4.90303 8.12171 6.84617 6.31307C8.78931 4.50444 11.3454 3.49895 14 3.49895C16.6546 3.49895 19.2107 4.50444 21.1538 6.31307C23.097 8.12171 24.2829 10.5992 24.473 13.247C24.6632 15.8948 23.8433 18.5163 22.1784 20.584C20.5136 22.6517 18.1274 24.012 15.5 24.3913Z" fill="#fff"/>
</svg>
