<svg width="28" height="28" viewBox="0 0 28 28" fill="none" xmlns="http://www.w3.org/2000/svg">
<path d="M14 8C12.8133 8 11.6533 8.35189 10.6666 9.01118C9.67988 9.67047 8.91085 10.6075 8.45672 11.7039C8.0026 12.8003 7.88378 14.0067 8.11529 15.1705C8.3468 16.3344 8.91824 17.4035 9.75736 18.2426C10.5965 19.0818 11.6656 19.6532 12.8295 19.8847C13.9933 20.1162 15.1997 19.9974 16.2961 19.5433C17.3925 19.0892 18.3295 18.3201 18.9888 17.3334C19.6481 16.3467 20 15.1867 20 14C19.9983 12.4092 19.3657 10.884 18.2408 9.75919C17.116 8.63433 15.5908 8.00165 14 8ZM14 17C13.4067 17 12.8266 16.8241 12.3333 16.4944C11.8399 16.1648 11.4554 15.6962 11.2284 15.1481C11.0013 14.5999 10.9419 13.9967 11.0576 13.4147C11.1734 12.8328 11.4591 12.2982 11.8787 11.8787C12.2982 11.4591 12.8328 11.1734 13.4147 11.0576C13.9967 10.9419 14.5999 11.0013 15.1481 11.2284C15.6962 11.4554 16.1648 11.8399 16.4944 12.3333C16.8241 12.8266 17 13.4067 17 14C17 14.7956 16.6839 15.5587 16.1213 16.1213C15.5587 16.6839 14.7956 17 14 17ZM20 0.5H8C6.01159 0.502316 4.10528 1.29324 2.69926 2.69926C1.29324 4.10528 0.502316 6.01159 0.5 8V20C0.502316 21.9884 1.29324 23.8947 2.69926 25.3007C4.10528 26.7068 6.01159 27.4977 8 27.5H20C21.9884 27.4977 23.8947 26.7068 25.3007 25.3007C26.7068 23.8947 27.4977 21.9884 27.5 20V8C27.4977 6.01159 26.7068 4.10528 25.3007 2.69926C23.8947 1.29324 21.9884 0.502316 20 0.5ZM24.5 20C24.5 21.1935 24.0259 22.3381 23.182 23.182C22.3381 24.0259 21.1935 24.5 20 24.5H8C6.80653 24.5 5.66193 24.0259 4.81802 23.182C3.97411 22.3381 3.5 21.1935 3.5 20V8C3.5 6.80653 3.97411 5.66193 4.81802 4.81802C5.66193 3.97411 6.80653 3.5 8 3.5H20C21.1935 3.5 22.3381 3.97411 23.182 4.81802C24.0259 5.66193 24.5 6.80653 24.5 8V20ZM22.5 7.5C22.5 7.89556 22.3827 8.28224 22.1629 8.61114C21.9432 8.94004 21.6308 9.19638 21.2654 9.34776C20.8999 9.49913 20.4978 9.53874 20.1098 9.46157C19.7219 9.3844 19.3655 9.19392 19.0858 8.91421C18.8061 8.63451 18.6156 8.27814 18.5384 7.89018C18.4613 7.50222 18.5009 7.10009 18.6522 6.73463C18.8036 6.36918 19.06 6.05682 19.3889 5.83706C19.7178 5.6173 20.1044 5.5 20.5 5.5C21.0304 5.5 21.5391 5.71071 21.9142 6.08579C22.2893 6.46086 22.5 6.96957 22.5 7.5Z" fill="#fff"/>
</svg>
