<svg width="28" height="28" viewBox="0 0 28 28" fill="none" xmlns="http://www.w3.org/2000/svg">
<path d="M25 0.5H3C2.33696 0.5 1.70107 0.763392 1.23223 1.23223C0.763392 1.70107 0.5 2.33696 0.5 3V25C0.5 25.663 0.763392 26.2989 1.23223 26.7678C1.70107 27.2366 2.33696 27.5 3 27.5H25C25.663 27.5 26.2989 27.2366 26.7678 26.7678C27.2366 26.2989 27.5 25.663 27.5 25V3C27.5 2.33696 27.2366 1.70107 26.7678 1.23223C26.2989 0.763392 25.663 0.5 25 0.5ZM24.5 24.5H3.5V3.5H24.5V24.5ZM12 20V13.5C12.0003 13.1883 12.0977 12.8844 12.2787 12.6306C12.4596 12.3768 12.7152 12.1856 13.0098 12.0838C13.3044 11.9819 13.6235 11.9743 13.9226 12.0622C14.2217 12.15 14.486 12.3288 14.6787 12.5737C15.4406 12.1744 16.2927 11.9784 17.1525 12.0046C18.0122 12.0308 18.8507 12.2784 19.5869 12.7235C20.323 13.1685 20.9318 13.7959 21.3546 14.5451C21.7773 15.2943 21.9996 16.1398 22 17V20C22 20.3978 21.842 20.7794 21.5607 21.0607C21.2794 21.342 20.8978 21.5 20.5 21.5C20.1022 21.5 19.7206 21.342 19.4393 21.0607C19.158 20.7794 19 20.3978 19 20V17C19 16.4696 18.7893 15.9609 18.4142 15.5858C18.0391 15.2107 17.5304 15 17 15C16.4696 15 15.9609 15.2107 15.5858 15.5858C15.2107 15.9609 15 16.4696 15 17V20C15 20.3978 14.842 20.7794 14.5607 21.0607C14.2794 21.342 13.8978 21.5 13.5 21.5C13.1022 21.5 12.7206 21.342 12.4393 21.0607C12.158 20.7794 12 20.3978 12 20ZM10 13.5V20C10 20.3978 9.84196 20.7794 9.56066 21.0607C9.27936 21.342 8.89782 21.5 8.5 21.5C8.10218 21.5 7.72064 21.342 7.43934 21.0607C7.15804 20.7794 7 20.3978 7 20V13.5C7 13.1022 7.15804 12.7206 7.43934 12.4393C7.72064 12.158 8.10218 12 8.5 12C8.89782 12 9.27936 12.158 9.56066 12.4393C9.84196 12.7206 10 13.1022 10 13.5ZM6.5 8C6.5 7.60444 6.6173 7.21776 6.83706 6.88886C7.05682 6.55996 7.36918 6.30362 7.73463 6.15224C8.10009 6.00087 8.50222 5.96126 8.89018 6.03843C9.27814 6.1156 9.63451 6.30608 9.91421 6.58579C10.1939 6.86549 10.3844 7.22186 10.4616 7.60982C10.5387 7.99778 10.4991 8.39991 10.3478 8.76537C10.1964 9.13082 9.94004 9.44318 9.61114 9.66294C9.28224 9.8827 8.89556 10 8.5 10C7.96957 10 7.46086 9.78929 7.08579 9.41421C6.71071 9.03914 6.5 8.53043 6.5 8Z" fill="#fff"/>
</svg>
