<svg width="28" height="29" viewBox="0 0 28 29" fill="none" xmlns="http://www.w3.org/2000/svg">
<path d="M26 7.5C24.5418 7.49835 23.1438 6.91835 22.1127 5.88726C21.0816 4.85617 20.5017 3.45818 20.5 2C20.5 1.60218 20.342 1.22064 20.0607 0.93934C19.7794 0.658035 19.3978 0.5 19 0.5H14C13.6022 0.5 13.2206 0.658035 12.9393 0.93934C12.658 1.22064 12.5 1.60218 12.5 2V18.5C12.4998 18.8579 12.4035 19.2092 12.2212 19.5172C12.039 19.8252 11.7774 20.0787 11.4638 20.2512C11.1502 20.4236 10.796 20.5088 10.4383 20.4977C10.0806 20.4867 9.73236 20.3799 9.42998 20.1884C9.12761 19.9969 8.88216 19.7278 8.71924 19.4091C8.55632 19.0905 8.48189 18.7339 8.50373 18.3767C8.52556 18.0194 8.64286 17.6746 8.84338 17.3781C9.04391 17.0817 9.32031 16.8445 9.64375 16.6912C9.90001 16.5695 10.1165 16.3775 10.268 16.1377C10.4196 15.8979 10.5 15.62 10.5 15.3363V10C10.4999 9.78084 10.4518 9.56436 10.3591 9.3658C10.2663 9.16723 10.1312 8.9914 9.96316 8.85068C9.79515 8.70996 9.59835 8.60776 9.38659 8.55128C9.17484 8.49479 8.95328 8.4854 8.7375 8.52375C6.42717 8.94637 4.34176 10.1751 2.8525 11.9913C1.33597 13.8216 0.504177 16.123 0.5 18.5C0.5 21.1522 1.55357 23.6957 3.42893 25.5711C5.3043 27.4464 7.84784 28.5 10.5 28.5C13.1522 28.5 15.6957 27.4464 17.5711 25.5711C19.4464 23.6957 20.5 21.1522 20.5 18.5V14.3337C22.2306 15.1061 24.1049 15.5035 26 15.5C26.3978 15.5 26.7794 15.342 27.0607 15.0607C27.342 14.7794 27.5 14.3978 27.5 14V9C27.5 8.60218 27.342 8.22064 27.0607 7.93934C26.7794 7.65804 26.3978 7.5 26 7.5ZM24.5 12.3938C22.8298 12.1575 21.2424 11.5178 19.875 10.53C19.6508 10.369 19.3864 10.2729 19.1111 10.2525C18.8358 10.232 18.5602 10.2879 18.3146 10.4141C18.069 10.5402 17.863 10.7317 17.7193 10.9674C17.5756 11.2031 17.4997 11.4739 17.5 11.75V18.5C17.5 20.3565 16.7625 22.137 15.4497 23.4497C14.137 24.7625 12.3565 25.5 10.5 25.5C8.64348 25.5 6.86301 24.7625 5.55025 23.4497C4.2375 22.137 3.5 20.3565 3.5 18.5C3.50462 17.1607 3.88103 15.849 4.58729 14.711C5.29354 13.5731 6.3019 12.6536 7.5 12.055V14.5C6.81817 15.0114 6.27838 15.6885 5.93188 16.4672C5.58537 17.2459 5.44366 18.1002 5.5202 18.949C5.59674 19.7979 5.88899 20.6131 6.3692 21.3172C6.8494 22.0213 7.50163 22.591 8.26393 22.9721C9.02624 23.3533 9.87332 23.5333 10.7247 23.4949C11.5762 23.4566 12.4037 23.2013 13.1287 22.7533C13.8537 22.3052 14.4521 21.6792 14.8671 20.9348C15.2821 20.1904 15.5 19.3523 15.5 18.5V3.5H17.6325C17.9423 5.20758 18.7657 6.77998 19.9929 8.00713C21.22 9.23428 22.7924 10.0577 24.5 10.3675V12.3938Z" fill="#fff"/>
</svg>
