<svg width="29" height="26" viewBox="0 0 29 26" fill="none" xmlns="http://www.w3.org/2000/svg">
<path d="M28.3863 4.42634C28.2727 4.15213 28.0804 3.91775 27.8337 3.75288C27.5869 3.588 27.2968 3.50002 27 3.50008H23.4775C22.8855 2.58878 22.0773 1.838 21.1249 1.31459C20.1725 0.791176 19.1054 0.511372 18.0188 0.500085C17.1709 0.488701 16.3294 0.647066 15.5437 0.965857C14.758 1.28465 14.044 1.75742 13.4438 2.35633C12.8265 2.96169 12.3366 3.68437 12.0028 4.48186C11.669 5.27935 11.498 6.13555 11.5 7.00008V7.09758C6.89626 5.65133 3.20251 1.98508 3.16251 1.94383C2.96124 1.741 2.70622 1.59988 2.42747 1.53707C2.14872 1.47426 1.85782 1.49238 1.58902 1.58929C1.32021 1.68621 1.08468 1.85788 0.910132 2.08412C0.735587 2.31035 0.629292 2.58174 0.603756 2.86633C-0.184994 11.6376 3.68501 16.3401 5.86126 18.2563C4.05001 20.1038 1.50001 21.0851 1.47501 21.0951C1.26299 21.174 1.07157 21.2999 0.915072 21.4632C0.758578 21.6266 0.641065 21.8233 0.571331 22.0385C0.501596 22.2537 0.481445 22.4819 0.512387 22.706C0.543329 22.9301 0.624563 23.1443 0.750006 23.3326C1.00001 23.6938 2.43001 25.5001 7.00001 25.5001C16.0313 25.5001 23.5875 18.5926 24.45 9.67134L28.06 6.06133C28.27 5.85165 28.4131 5.58438 28.4712 5.29334C28.5293 5.0023 28.4997 4.70057 28.3863 4.42634ZM21.94 7.94008C21.6814 8.19754 21.5262 8.54088 21.5038 8.90508C21.0175 16.5288 14.6475 22.5001 7.00001 22.5001C6.47794 22.5031 5.95628 22.4701 5.43876 22.4013C6.75001 21.5688 8.21501 20.3838 9.25001 18.8326C9.36322 18.6628 9.4406 18.4716 9.47739 18.2709C9.51418 18.0701 9.50962 17.864 9.46399 17.6651C9.41835 17.4662 9.3326 17.2786 9.21198 17.114C9.09137 16.9494 8.93842 16.8111 8.76251 16.7076C8.74751 16.6988 7.22126 15.7713 5.83376 13.6551C4.44626 11.5388 3.67626 9.03008 3.52626 6.18258C5.67126 7.80008 9.00001 9.84883 12.75 10.4801C12.9652 10.5165 13.1857 10.5054 13.3962 10.4478C13.6066 10.3902 13.802 10.2873 13.9686 10.1464C14.1353 10.0055 14.2691 9.8299 14.3609 9.63192C14.4527 9.43393 14.5001 9.21831 14.5 9.00008V7.00008C14.4989 6.53292 14.5914 6.07027 14.7719 5.63941C14.9525 5.20854 15.2175 4.81818 15.5513 4.49133C15.87 4.17246 16.2493 3.92051 16.6668 3.75029C17.0843 3.58006 17.5317 3.495 17.9825 3.50008C18.6641 3.50921 19.3292 3.71148 19.9005 4.08341C20.4718 4.45535 20.9258 4.98169 21.21 5.60133C21.327 5.86864 21.5193 6.09603 21.7635 6.25566C22.0078 6.41529 22.2932 6.50024 22.585 6.50008H23.375L21.94 7.94008Z" fill="#fff"/>
</svg>
